<mxfile host="app.diagrams.net" modified="2023-07-04T08:40:38.081Z" agent="Mozilla/5.0 (Macintosh; Intel Mac OS X 10_15_7) AppleWebKit/537.36 (KHTML, like Gecko) Chrome/113.0.0.0 Safari/537.36" version="21.3.7" etag="MK4v_nXfg6mAnL9W_SUW" type="github">
  <diagram name="第 1 页" id="pbgh6q_sP_-A8DNwU9to">
    <mxGraphModel>
      <root>
        <mxCell id="0" />
        <mxCell id="1" parent="0" />
      </root>
    </mxGraphModel>
  </diagram>
</mxfile>
